<svg width="1803.9" height="379.89" version="1.1" viewBox="0 0 477.28 100.51" xmlns="http://www.w3.org/2000/svg">
    <g transform="translate(275.76 28.959)">
        <path d="m181.9 12.052v8.046h8.0462q1.7571-0.0923 2.7742-1.2948 1.0175-1.2023 1.0175-2.9595t-1.2024-2.7744q-1.2021-1.0173-2.7746-1.0173zm-6.1732-6.1964h14.219q8.6702 0.92485 10.219 8.3466 0.30051 5.5721-2.1732 8.6703-3.1444 3.1443-8.5083 3.1443h-7.5837v11.098h-6.1732zm-23.514 6.1964v8.046h8.0458q1.7574-0.0923 2.7746-1.2948 1.0175-1.2023 1.0175-2.9595t-1.2024-2.7744q-1.2024-1.0173-2.7746-1.0173zm-6.1732-6.1964h14.219q8.6705 0.92485 10.219 8.3466 0.30051 5.5721-2.1732 8.6703-3.1444 3.1443-8.5086 3.1443h-7.5834v11.098h-6.1732zm-22.774 18.496 7.1906 0.0693-3.6761-10.52zm0.99416-18.496h5.8959l11.884 31.259h-6.9364l-2.7976-6.7975h-11.121l-2.1735 6.7975h-6.8205zm-45.108 18.496 7.1906 0.0693-3.6764-10.52zm0.99416-18.496h5.8956l11.884 31.259h-6.9361l-2.7979-6.7975h-11.121l-2.1735 6.7975h-6.8205zm-38.357 0h24.138v6.1964h-8.971v25.063h-6.4967v-25.063h-8.6705zm-54.38 15.63q0 4.1617 1.9883 7.0286 1.9883 2.867 5.4565 2.9132 3.4682 0.046 5.3639-2.7283 1.896-2.7745 1.896-7.0749 0-4.3004-1.9883-7.1212-1.9886-2.8207-5.4565-2.8207-3.4682 0-5.3639 2.8207-1.896 2.8207-1.896 6.9825zm7.5834-16.184q5.4568 0.092301 9.4334 4.023 3.9766 3.9305 4.0692 12.069 0.091995 8.1384-4.2078 12.346-4.3004 4.208-10.497 3.8843-6.1965-0.3237-9.572-4.7629-3.3756-4.4392-3.237-11.884 0.13799-7.4449 4.3004-11.56 4.1618-4.1155 9.7107-4.1155zm-34.773 6.7512v8.046h8.0459q1.7574-0.0923 2.7746-1.2948 1.0172-1.2023 1.0172-2.9595t-1.2021-2.7744q-1.2024-1.0173-2.7746-1.0173zm-6.1735-6.1964h14.219q8.6702 0.92485 10.219 8.3466 0.30052 5.5721-2.1732 8.6703-3.1444 3.1443-8.5086 3.1443h-7.5834v11.098h-6.1735zm-26.011 15.63q0 4.1617 1.9886 7.0286 1.9883 2.867 5.4565 2.9132 3.4679 0.046 5.3639-2.7283 1.896-2.7745 1.896-7.0749 0-4.3004-1.9886-7.1212-1.9883-2.8207-5.4562-2.8207-3.4682 0-5.3642 2.8207-1.896 2.8207-1.896 6.9825zm7.5837-16.184q5.4565 0.092301 9.4331 4.023 3.9769 3.9305 4.0692 12.069 0.092 8.1384-4.2078 12.346-4.3004 4.208-10.497 3.8843-6.1961-0.3237-9.5717-4.7629-3.3759-4.4392-3.237-11.884 0.13799-7.4449 4.3004-11.56 4.1615-4.1155 9.7107-4.1155zm-35.976 6.7512v8.046h8.0462q2.0346 0 3.3293-1.156 1.295-1.1561 1.295-3.0057 0-1.8497-1.295-2.867-1.2947-1.0173-3.1444-1.0173zm-6.1732-6.1964h14.844q5.1097 0 7.8379 3.052 2.7283 3.0519 2.4507 8.2772-0.27905 5.2252-5.8263 7.9072l5.9189 12.023h-7.2832l-5.5721-11.19-6.1965 0.0463v11.144h-6.1732zm-23.514 6.1964v8.046h8.0463q1.7571-0.0923 2.7742-1.2948 1.0175-1.2023 1.0175-2.9595t-1.2024-2.7744q-1.2024-1.0173-2.7746-1.0173zm-6.1732-6.1964h14.219q8.6699 0.92485 10.219 8.3466 0.30052 5.5721-2.1735 8.6703-3.1441 3.1443-8.508 3.1443h-7.5838v11.098h-6.1732z" style="stroke-dashoffset:7;stroke-linecap:round;stroke-linejoin:round;stroke-width:17.757;text-orientation:upright"/>
        <path d="m15.584 29.214q4.1551 3.9305 8.8717 4.3798 4.7166 0.44915 6.4571-1.5723 1.7408-2.0214 0.78625-4.0989-0.9546-2.0776-8.9839-3.706-8.0296-1.6283-10.163-6.5135-2.1346-4.8851 0.78625-10.051 2.9193-5.1659 8.3099-5.6151v-5.1659h7.6362v5.1659q3.9309 0.11223 9.7704 5.5028l-5.3903 5.3905q-4.4924-3.5936-8.9842-3.6498-4.4921-0.056423-4.9978 2.976-0.50505 3.0321 4.8291 4.1552 5.3345 1.123 10.051 3.3691 4.7166 2.246 5.2222 7.9734 0.50536 5.7274-3.0886 8.928t-7.4123 3.7621v5.2782h-7.6362v-5.2782q-2.2459 0.11193-5.9524-1.6283-3.7059-1.7407-5.3621-4.4921zm89.505 0.77962q1.5262 0 2.636 1.1098 1.1098 1.1098 1.1098 2.6357 0 1.526-1.1098 2.6357-1.1098 1.1098-2.636 1.1098-1.5259 0-2.6356-1.1098-1.1098-1.1098-1.1098-2.6357 0-1.5259 1.1098-2.6357 1.1098-1.1098 2.6356-1.1098z" style="fill:#12884d;stroke-dashoffset:7;stroke-linecap:round;stroke-linejoin:round;stroke-width:28.187;text-orientation:upright"/>
        <g transform="matrix(.32249 0 0 .32249 -113.38 76.147)">
            <path d="m-224.47-208.46 1.651 0.14535-0.406-0.78717z" style="fill-rule:evenodd;stop-color:#000000;stroke-width:.75572"/>
            <path d="m-254.93-252.73 1.6323-0.28702-0.5955-0.65531z" style="fill-rule:evenodd;stop-color:#000000;stroke-width:.75572"/>
            <path d="m-294.91-288.06 1.5022-0.69956-0.7451-0.4788z" style="fill-rule:evenodd;stop-color:#000000;stroke-width:.75572"/>
            <g transform="matrix(3.0665 0 0 3.0665 -6582.3 121.53)">
                <path d="m2015.5-77.783 68.218-35.165 15.846 30.741-68.218 35.165z" style="fill-rule:evenodd;fill:#ffffff;stop-color:#000000;stroke-width:2.1167;stroke:#12884d"/>
                <path d="m2033.9-50.436a2.0519 2.0519 0 0 1-0.8835 2.764 2.0519 2.0519 0 0 1-2.764-0.88358 2.0519 2.0519 0 0 1 0.8835-2.764 2.0519 2.0519 0 0 1 2.764 0.88358z" style="fill:#12884d;stroke-dashoffset:7;stroke-width:2.1167"/>
                <path d="m2098.9-83.936a2.0519 2.0519 0 0 1-0.8836 2.764 2.0519 2.0519 0 0 1-2.764-0.88359 2.0519 2.0519 0 0 1 0.8836-2.764 2.0519 2.0519 0 0 1 2.764 0.88359z" style="fill:#12884d;stroke-dashoffset:7;stroke-width:2.1167"/>
                <path d="m2090.1-83.811q0.6337 0.13801 1.1178-0.0948 0.4842-0.23281 0.5346-0.53101 0.051-0.29822-0.1639-0.44393-0.2144-0.14573-1.0892 0.16677-0.8747 0.31249-1.3681-0.0366-0.4934-0.34913-0.5127-1.0216-0.019-0.67252 0.4775-1.032l-0.3027-0.50141 0.7412-0.44751 0.3028 0.50141q0.388-0.21944 1.2708-0.0384l-0.2074 0.8391q-0.6466-0.0856-1.0859 0.17222-0.4393 0.25777-0.3106 0.58172 0.1286 0.32392 0.7122 0.12032 0.5835-0.20359 1.173-0.26199 0.5894-0.0584 0.9741 0.4679 0.3847 0.52631 0.2234 1.0476-0.1612 0.52125-0.4989 0.79951l0.3093 0.51231-0.7412 0.44751-0.3093-0.51231q-0.2115 0.14252-0.6732 0.19074-0.4617 0.0482-0.7837-0.12177z" style="fill:#12884d;stroke-dashoffset:7;stroke-linecap:round;stroke-linejoin:round;stroke-width:2.4447;text-orientation:upright"/>
            </g>
            <g transform="matrix(3.0665 0 0 3.0665 -6570.8 121.41)">
                <path d="m2011.8-78.126 56.792-51.623 23.263 25.592-56.792 51.623z" style="fill-rule:evenodd;fill:#ffffff;stop-color:#000000;stroke-width:2.1167;stroke:#12884d"/>
                <path d="m2036.8-56.624a2.0519 2.0519 0 0 1-0.1381 2.8985 2.0519 2.0519 0 0 1-2.8985-0.13811 2.0519 2.0519 0 0 1 0.1381-2.8985 2.0519 2.0519 0 0 1 2.8985 0.1381z" style="fill:#12884d;stroke-dashoffset:7;stroke-width:2.1167"/>
                <path d="m2090.7-105.66a2.0519 2.0519 0 0 1-0.1381 2.8985 2.0519 2.0519 0 0 1-2.8985-0.1381 2.0519 2.0519 0 0 1 0.1381-2.8985 2.0519 2.0519 0 0 1 2.8985 0.1381z" style="fill:#12884d;stroke-dashoffset:7;stroke-width:2.1167"/>
                <path d="m2082.6-103.28q0.6477-0.0307 1.0551-0.38086 0.4074-0.35018 0.379-0.65129-0.028-0.30112-0.2732-0.38638-0.2448-0.0853-1.0089 0.44299-0.7641 0.52826-1.3311 0.31873-0.5669-0.20953-0.7596-0.85414-0.1927-0.64459 0.1942-1.1204l-0.4222-0.40598 0.6001-0.6241 0.4222 0.40597q0.3181-0.3124 1.2176-0.36603l0.017 0.86417q-0.6468 0.0847-1.0044 0.44741-0.3576 0.36268-0.1495 0.6423 0.2081 0.27958 0.7191-0.0681 0.511-0.3477 1.0652-0.55667 0.5542-0.20896 1.062 0.19984t0.487 0.95402q-0.021 0.54522-0.275 0.9014l0.4313 0.4148-0.6001 0.6241-0.4314-0.4148q-0.1673 0.19238-0.6008 0.35846t-0.7886 0.0852z" style="fill:#12884d;stroke-dashoffset:7;stroke-linecap:round;stroke-linejoin:round;stroke-width:2.4447;text-orientation:upright"/>
            </g>
            <g transform="matrix(3.0665 0 0 3.0665 -6581.2 122.32)">
                <path d="m2015.2-78.813 41.496-64.563 29.094 18.699-41.496 64.563z" style="fill-rule:evenodd;fill:#ffffff;stop-color:#000000;stroke-width:2.1167;stroke:#12884d"/>
                <path d="m2019.1-81.155a2.0519 2.0519 0 0 1 0.6168 2.8355 2.0519 2.0519 0 0 1-2.8355 0.61679 2.0519 2.0519 0 0 1-0.6168-2.8355 2.0519 2.0519 0 0 1 2.8355-0.61679z" style="fill:#12884d;stroke-dashoffset:7;stroke-width:2.1167"/>
                <path d="m2044.8-64.671a2.0519 2.0519 0 0 1 0.6168 2.8355 2.0519 2.0519 0 0 1-2.8354 0.61679 2.0519 2.0519 0 0 1-0.6168-2.8355 2.0519 2.0519 0 0 1 2.8354-0.6168z" style="fill:#12884d;stroke-dashoffset:7;stroke-width:2.1167"/>
                <path d="m2058.4-142.23a2.0519 2.0519 0 0 1 0.6168 2.8355 2.0519 2.0519 0 0 1-2.8355 0.61679 2.0519 2.0519 0 0 1-0.6168-2.8355 2.0519 2.0519 0 0 1 2.8355-0.6168z" style="fill:#12884d;stroke-dashoffset:7;stroke-width:2.1167"/>
                <path d="m2084-125.74a2.0519 2.0519 0 0 1 0.6168 2.8355 2.0519 2.0519 0 0 1-2.8355 0.6168 2.0519 2.0519 0 0 1-0.6168-2.8355 2.0519 2.0519 0 0 1 2.8355-0.61679z" style="fill:#12884d;stroke-dashoffset:7;stroke-width:2.1167"/>
                <path d="m2024.6-79.379q0.6178-0.1973 0.9207-0.64098t0.1975-0.72719q-0.1054-0.2835-0.3639-0.30249-0.2585-0.019-0.8599 0.68902-0.6014 0.70803-1.2032 0.65236-0.6018-0.0557-0.9548-0.62841-0.353-0.57276-0.1025-1.1325l-0.5128-0.28288 0.4181-0.75816 0.5129 0.28287q0.2264-0.38408 1.0813-0.66868l0.24 0.83035q-0.6027 0.24919-0.8543 0.6921-0.2516 0.44288 0.022 0.65911 0.2734 0.21621 0.677-0.2519t0.8849-0.8134q0.4812-0.34529 1.0775-0.0818 0.5963 0.26345 0.7173 0.79549t-0.032 0.94187l0.524 0.28902-0.4181 0.75817-0.5241-0.28902q-0.1118 0.22913-0.4876 0.50175-0.3757 0.27262-0.7396 0.28641z" style="fill:#12884d;stroke-dashoffset:7;stroke-linecap:round;stroke-linejoin:round;stroke-width:2.4447;text-orientation:upright"/>
                <path d="m2042.5-67.935q0.6177-0.1973 0.9206-0.64098t0.1975-0.72719q-0.1054-0.2835-0.3639-0.3025t-0.8599 0.68903q-0.6013 0.70802-1.2032 0.65237-0.6018-0.0557-0.9548-0.62842-0.353-0.57276-0.1025-1.1325l-0.5128-0.28288 0.4181-0.75816 0.5129 0.28287q0.2264-0.38408 1.0814-0.66868l0.24 0.83035q-0.6028 0.24919-0.8543 0.6921-0.2516 0.44288 0.022 0.65911 0.2733 0.21621 0.6769-0.2519t0.8849-0.8134q0.4812-0.34529 1.0775-0.0818 0.5963 0.26345 0.7173 0.79549t-0.032 0.94187l0.524 0.28902-0.4181 0.75817-0.5241-0.28903q-0.1118 0.22914-0.4876 0.50176-0.3757 0.27262-0.7396 0.28641z" style="fill:#12884d;stroke-dashoffset:7;stroke-linecap:round;stroke-linejoin:round;stroke-width:2.4447;text-orientation:upright"/>
                <path d="m2059-132.8q0.6177-0.1973 0.9206-0.64098t0.1975-0.72718q-0.1054-0.28351-0.3639-0.3025-0.2585-0.019-0.8599 0.68903-0.6013 0.70801-1.2032 0.65236-0.6018-0.0557-0.9548-0.62842-0.353-0.57276-0.1024-1.1325l-0.5129-0.28287 0.4182-0.75817 0.5128 0.28288q0.2264-0.38409 1.0814-0.66869l0.24 0.83035q-0.6028 0.2492-0.8543 0.6921-0.2516 0.44289 0.022 0.65911 0.2733 0.21621 0.6769-0.2519 0.4036-0.4681 0.8849-0.81339 0.4812-0.34529 1.0775-0.0818 0.5963 0.26344 0.7173 0.79548t-0.032 0.94187l0.524 0.28902-0.4181 0.75817-0.5241-0.28902q-0.1118 0.22914-0.4875 0.50175-0.3758 0.27262-0.7397 0.28641z" style="fill:#12884d;stroke-dashoffset:7;stroke-linecap:round;stroke-linejoin:round;stroke-width:2.4447;text-orientation:upright"/>
                <path d="m2076.8-121.35q0.6177-0.19731 0.9207-0.64099 0.3028-0.44368 0.1974-0.72718-0.1053-0.28351-0.3639-0.3025-0.2585-0.019-0.8599 0.68902-0.6013 0.70803-1.2032 0.65237-0.6018-0.0557-0.9548-0.62842-0.353-0.57276-0.1024-1.1325l-0.5129-0.28287 0.4182-0.75817 0.5128 0.28288q0.2264-0.38409 1.0814-0.66869l0.24 0.83035q-0.6028 0.2492-0.8543 0.6921-0.2516 0.44289 0.022 0.65911 0.2733 0.21621 0.6769-0.2519t0.8849-0.81339q0.4812-0.34529 1.0776-0.0818 0.5963 0.26344 0.7172 0.79548 0.121 0.53204-0.032 0.94187l0.5241 0.28903-0.4182 0.75816-0.524-0.28902q-0.1119 0.22914-0.4876 0.50175-0.3758 0.27262-0.7397 0.28641z" style="fill:#12884d;stroke-dashoffset:7;stroke-linecap:round;stroke-linejoin:round;stroke-width:2.4447;text-orientation:upright"/>
                <path d="m2056.8-102.97q-0.9125-2.8571-2.9645-4.2579-2.052-1.4008-3.3633-0.91342-1.3112 0.48736-1.399 1.6831-0.088 1.1957 3.1868 3.9769 3.2745 2.7812 3.0171 5.5647-0.2574 2.7835-2.9064 4.4161-2.649 1.6326-5.2379 0.47369l-1.3083 2.372-3.5065-1.934 1.3082-2.372q-1.7763-1.047-3.0926-5.0011l3.8403-1.11q1.1526 2.7878 3.201 3.9512t3.0484-0.10088q0.9999-1.2643-1.1651-3.1309-2.1649-1.8666-3.7619-4.0924-1.597-2.2258-0.3786-4.9837 1.2185-2.7578 3.6792-3.3174t4.3561 0.14963l1.3367-2.4236 3.5066 1.934-1.3368 2.4236q1.0598 0.51725 2.3206 2.2551 1.2609 1.7378 1.3247 3.4207z" style="fill:#12884d;stroke-dashoffset:7;stroke-linecap:round;stroke-linejoin:round;stroke-width:11.307;text-orientation:upright"/>
            </g>
            <path d="m-465.48-227.09c-1.973 0-1.973 4.7349 0 4.7349h105.03l3.0441-4.7349zm-32.455 24.34c-1.9733 0-1.9733 4.735 0 4.735h121.85l3.0426-4.735zm32.455 24.025c-1.973 0-1.973 4.735 0 4.735h73.948l3.0441-4.735z" style="fill-rule:evenodd;fill:#12884d;paint-order:normal;stop-color:#000000"/>
        </g>
    </g>
</svg>
