<svg width="512" height="450" version="1.1" viewBox="0 0 135.47 119.06" xmlns="http://www.w3.org/2000/svg">
    <g transform="translate(101.88 106.04)">
        <g transform="translate(-7.1509e-6 -5.0271)">
            <g transform="matrix(5.2489 0 0 5.2489 -156.62 -101.76)">
                <path d="m28.596 7.1661 0.09136 0.00806-0.02247-0.043559z" style="fill-rule:evenodd;stop-color:#000000;stroke-width:.041821"/>
                <path d="m26.911 4.7159 0.09033-0.015882-0.03296-0.036264z" style="fill-rule:evenodd;stop-color:#000000;stroke-width:.041821"/>
                <path d="m24.698 2.7609 0.08313-0.038711-0.04124-0.0265z" style="fill-rule:evenodd;stop-color:#000000;stroke-width:.041821"/>
                <g transform="matrix(.1697 0 0 .1697 -323.24 25.428)">
                    <path d="m2015.5-77.783 68.218-35.165 15.846 30.741-68.218 35.165z" style="fill-rule:evenodd;fill:#ffffff;stop-color:#000000;stroke-width:2.1167;stroke:#12884d"/>
                    <path d="m2033.9-50.436a2.0519 2.0519 0 0 1-0.8835 2.764 2.0519 2.0519 0 0 1-2.764-0.88358 2.0519 2.0519 0 0 1 0.8835-2.764 2.0519 2.0519 0 0 1 2.764 0.88358z" style="fill:#12884d;stroke-dashoffset:7;stroke-width:2.1167"/>
                    <path d="m2098.9-83.936a2.0519 2.0519 0 0 1-0.8836 2.764 2.0519 2.0519 0 0 1-2.764-0.88359 2.0519 2.0519 0 0 1 0.8836-2.764 2.0519 2.0519 0 0 1 2.764 0.88359z" style="fill:#12884d;stroke-dashoffset:7;stroke-width:2.1167"/>
                    <path d="m2090.1-83.811q0.6337 0.13801 1.1178-0.0948 0.4842-0.23281 0.5346-0.53101 0.051-0.29822-0.1639-0.44393-0.2144-0.14573-1.0892 0.16677-0.8747 0.31249-1.3681-0.0366-0.4934-0.34913-0.5127-1.0216-0.019-0.67252 0.4775-1.032l-0.3027-0.50141 0.7412-0.44751 0.3028 0.50141q0.388-0.21944 1.2708-0.0384l-0.2074 0.8391q-0.6466-0.0856-1.0859 0.17222-0.4393 0.25777-0.3106 0.58172 0.1286 0.32392 0.7122 0.12032 0.5835-0.20359 1.173-0.26199 0.5894-0.0584 0.9741 0.4679 0.3847 0.52631 0.2234 1.0476-0.1612 0.52125-0.4989 0.79951l0.3093 0.51231-0.7412 0.44751-0.3093-0.51231q-0.2115 0.14252-0.6732 0.19074-0.4617 0.0482-0.7837-0.12177z" style="fill:#12884d;stroke-dashoffset:7;stroke-linecap:round;stroke-linejoin:round;stroke-width:2.4447;text-orientation:upright"/>
                </g>
                <g transform="matrix(.1697 0 0 .1697 -322.61 25.421)">
                    <path d="m2011.8-78.126 56.792-51.623 23.263 25.592-56.792 51.623z" style="fill-rule:evenodd;fill:#ffffff;stop-color:#000000;stroke-width:2.1167;stroke:#12884d"/>
                    <path d="m2036.8-56.624a2.0519 2.0519 0 0 1-0.1381 2.8985 2.0519 2.0519 0 0 1-2.8985-0.13811 2.0519 2.0519 0 0 1 0.1381-2.8985 2.0519 2.0519 0 0 1 2.8985 0.1381z" style="fill:#12884d;stroke-dashoffset:7;stroke-width:2.1167"/>
                    <path d="m2090.7-105.66a2.0519 2.0519 0 0 1-0.1381 2.8985 2.0519 2.0519 0 0 1-2.8985-0.1381 2.0519 2.0519 0 0 1 0.1381-2.8985 2.0519 2.0519 0 0 1 2.8985 0.1381z" style="fill:#12884d;stroke-dashoffset:7;stroke-width:2.1167"/>
                    <path d="m2082.6-103.28q0.6477-0.0307 1.0551-0.38086 0.4074-0.35018 0.379-0.65129-0.028-0.30112-0.2732-0.38638-0.2448-0.0853-1.0089 0.44299-0.7641 0.52826-1.3311 0.31873-0.5669-0.20953-0.7596-0.85414-0.1927-0.64459 0.1942-1.1204l-0.4222-0.40598 0.6001-0.6241 0.4222 0.40597q0.3181-0.3124 1.2176-0.36603l0.017 0.86417q-0.6468 0.0847-1.0044 0.44741-0.3576 0.36268-0.1495 0.6423 0.2081 0.27958 0.7191-0.0681 0.511-0.3477 1.0652-0.55667 0.5542-0.20896 1.062 0.19984t0.487 0.95402q-0.021 0.54522-0.275 0.9014l0.4313 0.4148-0.6001 0.6241-0.4314-0.4148q-0.1673 0.19238-0.6008 0.35846t-0.7886 0.0852z" style="fill:#12884d;stroke-dashoffset:7;stroke-linecap:round;stroke-linejoin:round;stroke-width:2.4447;text-orientation:upright"/>
                </g>
                <g transform="matrix(.1697 0 0 .1697 -323.19 25.472)">
                    <path d="m2015.2-78.813 41.496-64.563 29.094 18.699-41.496 64.563z" style="fill-rule:evenodd;fill:#ffffff;stop-color:#000000;stroke-width:2.1167;stroke:#12884d"/>
                    <path d="m2019.1-81.155a2.0519 2.0519 0 0 1 0.6168 2.8355 2.0519 2.0519 0 0 1-2.8355 0.61679 2.0519 2.0519 0 0 1-0.6168-2.8355 2.0519 2.0519 0 0 1 2.8355-0.61679z" style="fill:#12884d;stroke-dashoffset:7;stroke-width:2.1167"/>
                    <path d="m2044.8-64.671a2.0519 2.0519 0 0 1 0.6168 2.8355 2.0519 2.0519 0 0 1-2.8354 0.61679 2.0519 2.0519 0 0 1-0.6168-2.8355 2.0519 2.0519 0 0 1 2.8354-0.6168z" style="fill:#12884d;stroke-dashoffset:7;stroke-width:2.1167"/>
                    <path d="m2058.4-142.23a2.0519 2.0519 0 0 1 0.6168 2.8355 2.0519 2.0519 0 0 1-2.8355 0.61679 2.0519 2.0519 0 0 1-0.6168-2.8355 2.0519 2.0519 0 0 1 2.8355-0.6168z" style="fill:#12884d;stroke-dashoffset:7;stroke-width:2.1167"/>
                    <path d="m2084-125.74a2.0519 2.0519 0 0 1 0.6168 2.8355 2.0519 2.0519 0 0 1-2.8355 0.6168 2.0519 2.0519 0 0 1-0.6168-2.8355 2.0519 2.0519 0 0 1 2.8355-0.61679z" style="fill:#12884d;stroke-dashoffset:7;stroke-width:2.1167"/>
                    <path d="m2024.6-79.379q0.6178-0.1973 0.9207-0.64098t0.1975-0.72719q-0.1054-0.2835-0.3639-0.30249-0.2585-0.019-0.8599 0.68902-0.6014 0.70803-1.2032 0.65236-0.6018-0.0557-0.9548-0.62841-0.353-0.57276-0.1025-1.1325l-0.5128-0.28288 0.4181-0.75816 0.5129 0.28287q0.2264-0.38408 1.0813-0.66868l0.24 0.83035q-0.6027 0.24919-0.8543 0.6921-0.2516 0.44288 0.022 0.65911 0.2734 0.21621 0.677-0.2519t0.8849-0.8134q0.4812-0.34529 1.0775-0.0818 0.5963 0.26345 0.7173 0.79549t-0.032 0.94187l0.524 0.28902-0.4181 0.75817-0.5241-0.28902q-0.1118 0.22913-0.4876 0.50175-0.3757 0.27262-0.7396 0.28641z" style="fill:#12884d;stroke-dashoffset:7;stroke-linecap:round;stroke-linejoin:round;stroke-width:2.4447;text-orientation:upright"/>
                    <path d="m2042.5-67.935q0.6177-0.1973 0.9206-0.64098t0.1975-0.72719q-0.1054-0.2835-0.3639-0.3025t-0.8599 0.68903q-0.6013 0.70802-1.2032 0.65237-0.6018-0.0557-0.9548-0.62842-0.353-0.57276-0.1025-1.1325l-0.5128-0.28288 0.4181-0.75816 0.5129 0.28287q0.2264-0.38408 1.0814-0.66868l0.24 0.83035q-0.6028 0.24919-0.8543 0.6921-0.2516 0.44288 0.022 0.65911 0.2733 0.21621 0.6769-0.2519t0.8849-0.8134q0.4812-0.34529 1.0775-0.0818 0.5963 0.26345 0.7173 0.79549t-0.032 0.94187l0.524 0.28902-0.4181 0.75817-0.5241-0.28903q-0.1118 0.22914-0.4876 0.50176-0.3757 0.27262-0.7396 0.28641z" style="fill:#12884d;stroke-dashoffset:7;stroke-linecap:round;stroke-linejoin:round;stroke-width:2.4447;text-orientation:upright"/>
                    <path d="m2059-132.8q0.6177-0.1973 0.9206-0.64098t0.1975-0.72718q-0.1054-0.28351-0.3639-0.3025-0.2585-0.019-0.8599 0.68903-0.6013 0.70801-1.2032 0.65236-0.6018-0.0557-0.9548-0.62842-0.353-0.57276-0.1024-1.1325l-0.5129-0.28287 0.4182-0.75817 0.5128 0.28288q0.2264-0.38409 1.0814-0.66869l0.24 0.83035q-0.6028 0.2492-0.8543 0.6921-0.2516 0.44289 0.022 0.65911 0.2733 0.21621 0.6769-0.2519 0.4036-0.4681 0.8849-0.81339 0.4812-0.34529 1.0775-0.0818 0.5963 0.26344 0.7173 0.79548t-0.032 0.94187l0.524 0.28902-0.4181 0.75817-0.5241-0.28902q-0.1118 0.22914-0.4875 0.50175-0.3758 0.27262-0.7397 0.28641z" style="fill:#12884d;stroke-dashoffset:7;stroke-linecap:round;stroke-linejoin:round;stroke-width:2.4447;text-orientation:upright"/>
                    <path d="m2076.8-121.35q0.6177-0.19731 0.9207-0.64099 0.3028-0.44368 0.1974-0.72718-0.1053-0.28351-0.3639-0.3025-0.2585-0.019-0.8599 0.68902-0.6013 0.70803-1.2032 0.65237-0.6018-0.0557-0.9548-0.62842-0.353-0.57276-0.1024-1.1325l-0.5129-0.28287 0.4182-0.75817 0.5128 0.28288q0.2264-0.38409 1.0814-0.66869l0.24 0.83035q-0.6028 0.2492-0.8543 0.6921-0.2516 0.44289 0.022 0.65911 0.2733 0.21621 0.6769-0.2519t0.8849-0.81339q0.4812-0.34529 1.0776-0.0818 0.5963 0.26344 0.7172 0.79548 0.121 0.53204-0.032 0.94187l0.5241 0.28903-0.4182 0.75816-0.524-0.28902q-0.1119 0.22914-0.4876 0.50175-0.3758 0.27262-0.7397 0.28641z" style="fill:#12884d;stroke-dashoffset:7;stroke-linecap:round;stroke-linejoin:round;stroke-width:2.4447;text-orientation:upright"/>
                    <path d="m2056.8-102.97q-0.9125-2.8571-2.9645-4.2579-2.052-1.4008-3.3633-0.91342-1.3112 0.48736-1.399 1.6831-0.088 1.1957 3.1868 3.9769 3.2745 2.7812 3.0171 5.5647-0.2574 2.7835-2.9064 4.4161-2.649 1.6326-5.2379 0.47369l-1.3083 2.372-3.5065-1.934 1.3082-2.372q-1.7763-1.047-3.0926-5.0011l3.8403-1.11q1.1526 2.7878 3.201 3.9512t3.0484-0.10088q0.9999-1.2643-1.1651-3.1309-2.1649-1.8666-3.7619-4.0924-1.597-2.2258-0.3786-4.9837 1.2185-2.7578 3.6792-3.3174t4.3561 0.14963l1.3367-2.4236 3.5066 1.934-1.3368 2.4236q1.0598 0.51725 2.3206 2.2551 1.2609 1.7378 1.3247 3.4207z" style="fill:#12884d;stroke-dashoffset:7;stroke-linecap:round;stroke-linejoin:round;stroke-width:11.307;text-orientation:upright"/>
                </g>
                <path d="m15.258 6.1352c-0.10919 0-0.10919 0.26203 0 0.26203h5.8126l0.16846-0.26203zm-1.7961 1.347c-0.1092 0-0.1092 0.26203 0 0.26203h6.7429l0.16838-0.26203zm1.7961 1.3295c-0.10919 0-0.10919 0.26203 0 0.26203h4.0923l0.16846-0.26203z" style="fill-rule:evenodd;fill:#12884d;paint-order:normal;stop-color:#000000"/>
            </g>
            <g transform="translate(0 -6.35)">
                <path d="m-95.319 7.7454v3.0374h3.0375q0.66332-0.03464 1.0473-0.48878 0.38412-0.45388 0.38412-1.1172t-0.45393-1.0474q-0.45393-0.38406-1.0474-0.38406zm-2.3304-2.3392h5.3679q3.273 0.34916 3.8578 3.1509 0.11343 2.1035-0.82052 3.2731-1.1869 1.187-3.2118 1.187h-2.863v4.1896h-2.3304z" style="stroke-dashoffset:7;stroke-linecap:round;stroke-linejoin:round;stroke-width:6.7033;text-orientation:upright"/>
                <path d="m-84.112 7.7454v3.0374h3.0375q0.76809 0 1.2568-0.4364 0.48889-0.43645 0.48889-1.1347 0-0.69827-0.48889-1.0823-0.48873-0.38406-1.187-0.38406zm-2.3304-2.3392h5.6036q1.929 0 2.9589 1.1521 1.0299 1.1521 0.92518 3.1247-0.10535 1.9726-2.1995 2.985l2.2344 4.5387h-2.7495l-2.1035-4.2245-2.3392 0.01732v4.207h-2.3304z" style="stroke-dashoffset:7;stroke-linecap:round;stroke-linejoin:round;stroke-width:6.7033;text-orientation:upright"/>
                <path d="m-73.394 11.307q0 1.5711 0.75072 2.6534 0.7506 1.0823 2.0599 1.0998 1.3092 0.01732 2.0249-1.0299 0.71576-1.0474 0.71576-2.6708 0-1.6235-0.75072-2.6883-0.75061-1.0648-2.0598-1.0648-1.3093 0-2.025 1.0648-0.71576 1.0648-0.71576 2.6359zm2.8629-6.1098q2.0599 0.034643 3.5611 1.5187 1.5013 1.4838 1.5362 4.5561 0.03464 3.0723-1.5885 4.6609-1.6235 1.5885-3.9627 1.4664-2.3391-0.1222-3.6134-1.798-1.2744-1.6758-1.222-4.4863 0.05197-2.8105 1.6235-4.3641 1.571-1.5536 3.6659-1.5536z" style="stroke-dashoffset:7;stroke-linecap:round;stroke-linejoin:round;stroke-width:6.7033;text-orientation:upright"/>
                <path d="m-61.244 7.7454v3.0374h3.0374q0.66343-0.03464 1.0474-0.48878 0.38396-0.45388 0.38396-1.1172t-0.45377-1.0474q-0.45393-0.38406-1.0474-0.38406zm-2.3305-2.3392h5.3679q3.2731 0.34916 3.8579 3.1509 0.11343 2.1035-0.82041 3.2731-1.187 1.187-3.2121 1.187h-2.8628v4.1896h-2.3305z" style="stroke-dashoffset:7;stroke-linecap:round;stroke-linejoin:round;stroke-width:6.7033;text-orientation:upright"/>
                <path d="m-50.979 11.307q0 1.5711 0.7506 2.6534 0.75061 1.0823 2.0599 1.0998 1.3093 0.01732 2.0249-1.0299 0.71576-1.0474 0.71576-2.6708 0-1.6235-0.7506-2.6883-0.75072-1.0648-2.0599-1.0648-1.3093 0-2.0249 1.0648-0.71576 1.0648-0.71576 2.6359zm2.8628-6.1098q2.06 0.034643 3.5612 1.5187 1.5012 1.4838 1.5362 4.5561 0.03464 3.0723-1.5885 4.6609-1.6235 1.5885-3.9627 1.4664-2.3392-0.1222-3.6135-1.798-1.2743-1.6758-1.222-4.4863 0.05196-2.8105 1.6235-4.3641 1.5711-1.5536 3.6659-1.5536z" style="stroke-dashoffset:7;stroke-linecap:round;stroke-linejoin:round;stroke-width:6.7033;text-orientation:upright"/>
                <path d="m-30.451 5.4062h9.1124v2.3392h-3.3866v9.4614h-2.4525v-9.4614h-3.2732z" style="stroke-dashoffset:7;stroke-linecap:round;stroke-linejoin:round;stroke-width:6.7033;text-orientation:upright"/>
                <path d="m-16.346 12.389 2.7145 0.02625-1.3879-3.9713zm0.3753-6.9826h2.2257l4.4864 11.801h-2.6184l-1.0562-2.5661h-4.1982l-0.82052 2.5661h-2.5748z" style="stroke-dashoffset:7;stroke-linecap:round;stroke-linejoin:round;stroke-width:6.7033;text-orientation:upright"/>
                <path d="m-6.5525 14.518q0.57615 0 0.9951 0.41897 0.41892 0.41897 0.41892 0.99501 0 0.57607-0.41892 0.99502-0.41897 0.41897-0.9951 0.41897-0.57603 0-0.99498-0.41897-0.41892-0.41892-0.41892-0.99502 0-0.57606 0.41892-0.99501 0.41892-0.41897 0.99498-0.41897z" style="fill:#12884d;stroke-dashoffset:7;stroke-linecap:round;stroke-linejoin:round;stroke-width:6.7033;text-orientation:upright"/>
                <path d="m0.30794 12.389 2.7145 0.026245-1.3878-3.9713zm0.3753-6.9826h2.2258l4.4864 11.801h-2.6185l-1.0561-2.5661h-4.1982l-0.82052 2.5661h-2.5748z" style="stroke-dashoffset:7;stroke-linecap:round;stroke-linejoin:round;stroke-width:6.7033;text-orientation:upright"/>
                <path d="m11.236 7.7454v3.0374h3.0374q0.66344-0.03464 1.0474-0.48878 0.38412-0.45388 0.38412-1.1172t-0.45393-1.0474q-0.45393-0.38406-1.0474-0.38406zm-2.3304-2.3392h5.3678q3.2732 0.34916 3.8579 3.1509 0.11343 2.1035-0.82041 3.2731-1.187 1.187-3.2121 1.187h-2.8628v4.1896h-2.3304z" style="stroke-dashoffset:7;stroke-linecap:round;stroke-linejoin:round;stroke-width:6.7033;text-orientation:upright"/>
                <path d="m22.443 7.7454v3.0374h3.0375q0.66332-0.03464 1.0473-0.48878 0.38412-0.45388 0.38412-1.1172t-0.45393-1.0474q-0.45377-0.38406-1.0474-0.38406zm-2.3304-2.3392h5.3679q3.2731 0.34916 3.8578 3.1509 0.11343 2.1035-0.82041 3.2731-1.187 1.187-3.212 1.187h-2.8629v4.1896h-2.3304z" style="stroke-dashoffset:7;stroke-linecap:round;stroke-linejoin:round;stroke-width:6.7033;text-orientation:upright"/>
                <path d="m-40.341 14.224q1.5686 1.4838 3.3491 1.6534 1.7805 0.16954 2.4376-0.59354 0.65719-0.76309 0.29683-1.5474-0.36039-0.78432-3.3915-1.3991-3.0312-0.61471-3.8366-2.4589-0.80583-1.8442 0.29683-3.7943 1.1021-1.9502 3.1371-2.1197v-1.9502h2.8827v1.9502q1.484 0.042516 3.6884 2.0773l-2.0349 2.0349q-1.6959-1.3566-3.3916-1.3778-1.6958-0.021521-1.8867 1.1235-0.19064 1.1447 1.823 1.5686 2.0138 0.42396 3.7945 1.2718 1.7805 0.8479 1.9714 3.01 0.1908 2.1621-1.166 3.3704-1.3567 1.2082-2.7982 1.4202v1.9926h-2.8827v-1.9926q-0.84784 0.04252-2.2471-0.61471-1.399-0.65714-2.0242-1.6958z" style="fill:#12884d;stroke-dashoffset:7;stroke-linecap:round;stroke-linejoin:round;stroke-width:10.641;text-orientation:upright"/>
            </g>
        </g>
    </g>
</svg>
