<svg width="1281.5" height="194.63" version="1.1" viewBox="0 0 339.06 51.497" xmlns="http://www.w3.org/2000/svg">
    <g transform="translate(137.55 4.452)">
        <path d="m181.9 12.052v8.046h8.0462q1.7571-0.0923 2.7742-1.2948 1.0175-1.2023 1.0175-2.9595t-1.2024-2.7744q-1.2021-1.0173-2.7746-1.0173zm-6.1732-6.1964h14.219q8.6702 0.92485 10.219 8.3466 0.30051 5.5721-2.1732 8.6703-3.1444 3.1443-8.5083 3.1443h-7.5837v11.098h-6.1732zm-23.514 6.1964v8.046h8.0458q1.7574-0.0923 2.7746-1.2948 1.0175-1.2023 1.0175-2.9595t-1.2024-2.7744q-1.2024-1.0173-2.7746-1.0173zm-6.1732-6.1964h14.219q8.6705 0.92485 10.219 8.3466 0.30051 5.5721-2.1732 8.6703-3.1444 3.1443-8.5086 3.1443h-7.5834v11.098h-6.1732zm-22.774 18.496 7.1906 0.0693-3.6761-10.52zm0.99416-18.496h5.8959l11.884 31.259h-6.9364l-2.7976-6.7975h-11.121l-2.1735 6.7975h-6.8205zm-45.108 18.496 7.1906 0.0693-3.6764-10.52zm0.99416-18.496h5.8956l11.884 31.259h-6.9361l-2.7979-6.7975h-11.121l-2.1735 6.7975h-6.8205zm-38.357 0h24.138v6.1964h-8.971v25.063h-6.4967v-25.063h-8.6705zm-54.38 15.63q0 4.1617 1.9883 7.0286 1.9883 2.867 5.4565 2.9132 3.4682 0.046 5.3639-2.7283 1.896-2.7745 1.896-7.0749 0-4.3004-1.9883-7.1212-1.9886-2.8207-5.4565-2.8207-3.4682 0-5.3639 2.8207-1.896 2.8207-1.896 6.9825zm7.5834-16.184q5.4568 0.092301 9.4334 4.023 3.9766 3.9305 4.0692 12.069 0.091995 8.1384-4.2078 12.346-4.3004 4.208-10.497 3.8843-6.1965-0.3237-9.572-4.7629-3.3756-4.4392-3.237-11.884 0.13799-7.4449 4.3004-11.56 4.1618-4.1155 9.7107-4.1155zm-34.773 6.7512v8.046h8.0459q1.7574-0.0923 2.7746-1.2948 1.0172-1.2023 1.0172-2.9595t-1.2021-2.7744q-1.2024-1.0173-2.7746-1.0173zm-6.1735-6.1964h14.219q8.6702 0.92485 10.219 8.3466 0.30052 5.5721-2.1732 8.6703-3.1444 3.1443-8.5086 3.1443h-7.5834v11.098h-6.1735zm-26.011 15.63q0 4.1617 1.9886 7.0286 1.9883 2.867 5.4565 2.9132 3.4679 0.046 5.3639-2.7283 1.896-2.7745 1.896-7.0749 0-4.3004-1.9886-7.1212-1.9883-2.8207-5.4562-2.8207-3.4682 0-5.3642 2.8207-1.896 2.8207-1.896 6.9825zm7.5837-16.184q5.4565 0.092301 9.4331 4.023 3.9769 3.9305 4.0692 12.069 0.092 8.1384-4.2078 12.346-4.3004 4.208-10.497 3.8843-6.1961-0.3237-9.5717-4.7629-3.3759-4.4392-3.237-11.884 0.13799-7.4449 4.3004-11.56 4.1615-4.1155 9.7107-4.1155zm-35.976 6.7512v8.046h8.0462q2.0346 0 3.3293-1.156 1.295-1.1561 1.295-3.0057 0-1.8497-1.295-2.867-1.2947-1.0173-3.1444-1.0173zm-6.1732-6.1964h14.844q5.1097 0 7.8379 3.052 2.7283 3.0519 2.4507 8.2772-0.27905 5.2252-5.8263 7.9072l5.9189 12.023h-7.2832l-5.5721-11.19-6.1965 0.0463v11.144h-6.1732zm-23.514 6.1964v8.046h8.0463q1.7571-0.0923 2.7742-1.2948 1.0175-1.2023 1.0175-2.9595t-1.2024-2.7744q-1.2024-1.0173-2.7746-1.0173zm-6.1732-6.1964h14.219q8.6699 0.92485 10.219 8.3466 0.30052 5.5721-2.1735 8.6703-3.1441 3.1443-8.508 3.1443h-7.5838v11.098h-6.1732z" style="stroke-dashoffset:7;stroke-linecap:round;stroke-linejoin:round;stroke-width:17.757;text-orientation:upright"/>
        <path d="m15.584 29.214q4.1551 3.9305 8.8717 4.3798 4.7166 0.44915 6.4571-1.5723 1.7408-2.0214 0.78625-4.0989-0.9546-2.0776-8.9839-3.706-8.0296-1.6283-10.163-6.5135-2.1346-4.8851 0.78625-10.051 2.9193-5.1659 8.3099-5.6151v-5.1659h7.6362v5.1659q3.9309 0.11223 9.7704 5.5028l-5.3903 5.3905q-4.4924-3.5936-8.9842-3.6498-4.4921-0.056423-4.9978 2.976-0.50505 3.0321 4.8291 4.1552 5.3345 1.123 10.051 3.3691 4.7166 2.246 5.2222 7.9734 0.50536 5.7274-3.0886 8.928t-7.4123 3.7621v5.2782h-7.6362v-5.2782q-2.2459 0.11193-5.9524-1.6283-3.7059-1.7407-5.3621-4.4921zm89.505 0.77962q1.5262 0 2.636 1.1098 1.1098 1.1098 1.1098 2.6357 0 1.526-1.1098 2.6357-1.1098 1.1098-2.636 1.1098-1.5259 0-2.6356-1.1098-1.1098-1.1098-1.1098-2.6357 0-1.5259 1.1098-2.6357 1.1098-1.1098 2.6356-1.1098z" style="fill:#12884d;stroke-dashoffset:7;stroke-linecap:round;stroke-linejoin:round;stroke-width:28.187;text-orientation:upright"/>
    </g>
</svg>
